<svg width="30" height="30" viewBox="0 0 30 30" fill="none" xmlns="http://www.w3.org/2000/svg">
<rect width="30" height="30" fill="black"/>
<path d="M2.86621 22V4.26318H5.90576V22H2.86621ZM11.0571 22L6.71143 16.0918L8.68896 13.9067L14.585 22H11.0571ZM5.49072 17.9229L5.46631 14.3828H5.99121L10.8496 8.99951H14.353L8.34717 15.4937L7.67578 15.6401L5.49072 17.9229ZM21.1157 26.5532C19.9683 26.5532 18.9714 26.3945 18.125 26.0771C17.2786 25.7598 16.6032 25.3285 16.0986 24.7832C15.5941 24.238 15.2808 23.6235 15.1587 22.9399L15.1343 22.8423H18.125L18.1616 22.9277C18.3244 23.3102 18.658 23.6276 19.1626 23.8799C19.6672 24.1322 20.3182 24.2583 21.1157 24.2583C22.1086 24.2583 22.8735 24.0142 23.4106 23.5259C23.9478 23.0457 24.2163 22.3906 24.2163 21.5605V19.5952H24.1309C23.8867 20.0672 23.5653 20.4701 23.1665 20.8037C22.7759 21.1374 22.3201 21.3978 21.7993 21.585C21.2785 21.764 20.7088 21.8535 20.0903 21.8535C18.9998 21.8535 18.0518 21.589 17.2461 21.0601C16.4486 20.5311 15.8301 19.7824 15.3906 18.814C14.9512 17.8374 14.7314 16.6859 14.7314 15.3594V15.335C14.7314 13.984 14.9512 12.8162 15.3906 11.8315C15.8382 10.8468 16.4648 10.09 17.2705 9.56104C18.0843 9.02393 19.0405 8.75537 20.1392 8.75537C20.7495 8.75537 21.311 8.8571 21.8237 9.06055C22.3364 9.25586 22.7881 9.54069 23.1787 9.91504C23.5693 10.2812 23.8867 10.7126 24.1309 11.209H24.2163V8.99951H27.2437V21.646C27.2437 22.6307 26.9954 23.4893 26.499 24.2217C26.0026 24.9541 25.2946 25.5238 24.375 25.9307C23.4554 26.3457 22.369 26.5532 21.1157 26.5532ZM21.0303 19.4976C21.6732 19.4976 22.2347 19.3307 22.7148 18.9971C23.195 18.6553 23.5653 18.1792 23.8257 17.5688C24.0942 16.9504 24.2285 16.2261 24.2285 15.396V15.3838C24.2285 14.5537 24.0942 13.8335 23.8257 13.2231C23.5571 12.6128 23.1828 12.1408 22.7026 11.8071C22.2306 11.4735 21.6732 11.3066 21.0303 11.3066C20.3792 11.3066 19.8096 11.4735 19.3213 11.8071C18.8411 12.1408 18.4709 12.6128 18.2104 13.2231C17.9582 13.8254 17.832 14.5456 17.832 15.3838V15.396C17.832 16.2342 17.9582 16.9626 18.2104 17.5811C18.4709 18.1914 18.8411 18.6634 19.3213 18.9971C19.8096 19.3307 20.3792 19.4976 21.0303 19.4976Z" fill="white"/>
</svg>
