<svg width="523" height="503" viewBox="0 0 523 503" fill="none" xmlns="http://www.w3.org/2000/svg">
<rect width="523" height="503" rx="102" fill="black"/>
<path d="M213.525 122C217.988 122.215 217.988 122.215 219.475 123.931C219.376 141.476 216.031 159.051 213.432 176.282C212.802 180.48 212.174 184.678 211.553 188.877C211.169 191.469 210.78 194.059 210.386 196.649C209.547 202.294 209.063 207.433 209.063 213.185C209.969 212.204 209.969 212.204 210.894 211.203C222.863 198.244 234.837 185.29 246.843 172.376C251.66 167.196 256.469 162.007 261.267 156.805C262.771 155.177 262.771 155.177 264.306 153.516C266.217 151.448 268.126 149.377 270.032 147.303C270.9 146.365 271.767 145.427 272.661 144.461C273.792 143.234 273.792 143.234 274.945 141.983C276.202 140.694 276.202 140.694 277.484 139.379C278.509 138.186 279.534 136.993 280.59 135.764C286.734 131.152 292.343 130.95 299.545 130.341C300.959 130.198 302.373 130.055 303.829 129.908C308.339 129.461 312.852 129.056 317.365 128.651C320.383 128.354 323.402 128.055 326.42 127.753C360.661 124.413 360.661 124.413 366.728 129.08C365.939 142.037 362.391 153.476 358.64 165.662C358.033 167.685 357.426 169.708 356.801 171.793C352.266 186.725 352.266 186.725 348.879 192.588C345.858 193.385 345.858 193.385 342.186 193.587C340.867 193.663 339.547 193.74 338.188 193.818C336.118 193.9 336.118 193.9 334.005 193.983C332.624 194.07 331.244 194.157 329.822 194.247C322.208 194.624 322.208 194.624 319.131 194.304C315.315 189.901 315.352 186.62 314.669 180.573C308.782 186.378 302.991 192.216 297.564 198.595C293.044 203.905 288.271 208.758 283.387 213.614C279.704 217.392 276.281 221.416 272.831 225.473C270.165 228.498 267.421 231.326 264.585 234.137C257.942 240.802 251.527 247.722 245.133 254.701C243.479 256.498 243.479 256.498 241.792 258.332C235.645 265.005 235.645 265.005 229.717 271.934C226.912 274.976 226.912 274.976 223.937 274.976C227.525 282.833 232.223 288.307 237.696 294.393C243.921 301.435 249.896 308.529 255.533 316.211C260.057 322.082 264.971 327.508 269.843 332.993C275.987 340.289 275.987 340.289 276.019 345.826C273.794 352.711 269.77 356.763 265.213 361.763C264.359 362.731 263.506 363.699 262.627 364.696C249.433 379.524 249.433 379.524 244.203 380C235.007 375.2 228.739 364.486 222.275 355.823C219.226 351.895 216.035 348.194 212.782 344.491C208.668 339.809 204.73 335.077 200.975 330.009C196.932 324.563 192.661 319.495 188.239 314.454C182.912 308.38 177.907 302.16 173.057 295.58C168.956 290.291 164.48 285.456 160.002 280.595C154.054 272.853 151.989 265.681 151.846 255.435C151.789 252.23 151.789 252.23 151.731 248.961C151.714 246.652 151.7 244.344 151.688 242.036C151.666 239.647 151.644 237.257 151.621 234.868C151.581 229.875 151.561 224.882 151.551 219.889C151.535 213.5 151.443 207.115 151.333 200.728C151.261 195.799 151.243 190.872 151.239 185.942C151.228 183.587 151.198 181.232 151.147 178.878C150.784 160.614 150.784 160.614 154.909 155.088C158.01 152.79 161.011 151.216 164.441 149.677C166.214 148.596 167.977 147.494 169.728 146.367C171.463 145.344 173.199 144.321 174.986 143.268C175.923 142.712 176.861 142.157 177.826 141.585C180.768 139.843 183.713 138.108 186.659 136.375C189.642 134.616 192.624 132.856 195.604 131.092C198.279 129.508 200.958 127.93 203.636 126.353C210.478 122.147 210.478 122.147 213.525 122Z" fill="white"/>
<path d="M368.215 211.467C369.526 216.669 370.42 221.581 371.19 226.915C371.728 230.161 371.728 230.161 372.277 233.472C373.377 243.074 373.862 251.666 368.887 259.91C362.93 267.568 356.193 274.105 349.222 280.497C340.915 288.158 333.08 296.48 325.266 304.798C323.739 306.419 322.211 308.039 320.682 309.659C319.929 310.457 319.177 311.255 318.401 312.077C314.904 315.778 311.398 319.465 307.882 323.142C306.715 324.366 305.547 325.589 304.344 326.85C297.867 333.303 297.867 333.303 293.398 333.434C287.306 330.677 284.204 325.502 280.179 319.709C278.609 317.512 277.039 315.315 275.467 313.118C274.44 311.652 274.44 311.652 273.392 310.155C271.426 307.36 271.426 307.36 268.559 304.154C268.03 300.084 268.03 300.084 268.559 295.572C270.901 291.972 270.901 291.972 274.044 288.599C275.062 287.482 276.08 286.364 277.129 285.213C280.632 281.665 284.232 278.299 287.895 274.975C285.452 275.353 283.008 275.731 280.564 276.11C278.508 276.426 276.451 276.74 274.394 277.052C270.108 277.701 265.828 278.364 261.558 279.139C258.949 279.602 256.317 279.886 253.685 280.124C250.71 276.691 250.71 276.691 250.06 272.709C250.995 266.095 253.775 264.034 258.147 259.742C258.896 258.994 259.645 258.246 260.416 257.476C262.62 255.279 264.845 253.112 267.072 250.945C269.089 248.911 271.104 246.874 273.114 244.83C274.046 243.897 274.978 242.963 275.938 242.001C280.773 237.105 285.525 232.104 290.283 227.11C291.459 225.913 292.634 224.716 293.845 223.482C294.961 222.312 296.077 221.141 297.227 219.935C301.848 216.154 304.638 215.47 310.23 214.82C311.958 214.609 313.686 214.398 315.466 214.181C317.289 213.994 319.112 213.806 320.99 213.613C322.848 213.402 324.705 213.191 326.619 212.974C340.519 211.486 354.269 210.847 368.215 211.467Z" fill="white"/>
</svg>
