<svg width="523" height="503" viewBox="0 0 523 503" fill="none" xmlns="http://www.w3.org/2000/svg">
<rect width="523" height="503" rx="71" fill="#053468"/>
<path d="M199.114 72C204.903 72.2977 204.903 72.2977 206.832 74.6794C206.705 99.0248 202.365 123.412 198.993 147.321C198.176 153.146 197.361 158.972 196.555 164.799C196.057 168.395 195.552 171.989 195.041 175.582C193.953 183.415 193.325 190.546 193.325 198.528C194.501 197.167 194.501 197.167 195.7 195.778C211.228 177.796 226.762 159.822 242.337 141.902C248.585 134.713 254.825 127.513 261.05 120.295C263.001 118.036 263.001 118.036 264.991 115.732C267.47 112.862 269.947 109.988 272.421 107.111C273.546 105.809 274.671 104.508 275.831 103.167C277.298 101.465 277.298 101.465 278.794 99.728C280.424 97.9395 280.424 97.9395 282.087 96.1148C283.417 94.4596 284.746 92.8044 286.116 91.099C294.088 84.6988 301.364 84.4193 310.707 83.5736C312.541 83.3756 314.375 83.1776 316.265 82.9737C322.116 82.3528 327.97 81.7912 333.824 81.2291C337.74 80.8172 341.656 80.4017 345.572 79.9824C389.992 75.3478 389.992 75.3478 397.863 81.8245C396.839 99.8037 392.237 115.677 387.371 132.585C386.584 135.392 385.796 138.2 384.985 141.093C379.102 161.813 379.102 161.813 374.708 169.948C370.788 171.053 370.788 171.053 366.025 171.334C364.313 171.44 362.602 171.546 360.839 171.655C358.153 171.768 358.153 171.768 355.412 171.883C353.621 172.004 351.83 172.125 349.985 172.25C340.108 172.773 340.108 172.773 336.116 172.329C331.166 166.219 331.214 161.667 330.327 153.276C322.69 161.331 315.178 169.432 308.137 178.284C302.274 185.652 296.081 192.386 289.745 199.123C284.968 204.365 280.526 209.95 276.051 215.579C272.593 219.777 269.032 223.701 265.354 227.602C256.736 236.85 248.413 246.451 240.118 256.136C237.973 258.629 237.973 258.629 235.784 261.173C227.81 270.434 227.81 270.434 220.119 280.049C216.48 284.269 216.48 284.269 212.621 284.269C217.275 295.172 223.37 302.768 230.47 311.212C238.546 320.983 246.298 330.828 253.61 341.486C259.48 349.633 265.855 357.163 272.175 364.773C280.145 374.898 280.145 374.898 280.187 382.58C277.3 392.134 272.08 397.756 266.168 404.694C265.061 406.038 263.954 407.381 262.813 408.765C245.696 429.339 245.696 429.339 238.912 430C226.982 423.339 218.851 408.473 210.465 396.451C206.51 391.002 202.369 385.867 198.149 380.728C192.813 374.23 187.704 367.664 182.833 360.633C177.587 353.076 172.046 346.043 166.311 339.049C159.399 330.621 152.906 321.989 146.615 312.859C141.295 305.52 135.488 298.811 129.678 292.066C121.962 281.323 119.282 271.371 119.098 257.154C119.024 252.707 119.024 252.707 118.948 248.17C118.927 244.967 118.908 241.764 118.892 238.561C118.864 235.246 118.835 231.931 118.806 228.616C118.754 221.687 118.728 214.759 118.715 207.83C118.694 198.965 118.575 190.106 118.432 181.242C118.339 174.403 118.315 167.566 118.31 160.726C118.296 157.458 118.257 154.191 118.191 150.924C117.72 125.581 117.72 125.581 123.071 117.913C127.094 114.725 130.987 112.54 135.437 110.405C137.737 108.905 140.024 107.375 142.296 105.811C144.547 104.392 146.798 102.973 149.118 101.511C150.333 100.74 151.549 99.9699 152.801 99.1761C156.618 96.7584 160.439 94.3517 164.26 91.9468C168.13 89.5064 171.998 87.0636 175.864 84.6154C179.335 82.4181 182.81 80.229 186.285 78.0403C195.161 72.2033 195.161 72.2033 199.114 72Z" fill="#F1F1F1"/>
<path d="M399.793 196.146C401.494 203.363 402.653 210.179 403.652 217.581C404.35 222.085 404.35 222.085 405.061 226.68C406.489 240.003 407.119 251.926 400.664 263.365C392.936 273.991 384.196 283.062 375.154 291.931C364.376 302.561 354.212 314.11 344.075 325.651C342.094 327.9 340.111 330.148 338.128 332.396C337.152 333.503 336.175 334.61 335.169 335.751C330.633 340.886 326.083 346.003 321.523 351.105C320.008 352.803 318.494 354.501 316.933 356.25C308.531 365.204 308.531 365.204 302.732 365.386C294.829 361.561 290.806 354.38 285.584 346.342C283.547 343.293 281.51 340.244 279.471 337.196C278.139 335.161 278.139 335.161 276.779 333.085C274.229 329.206 274.229 329.206 270.509 324.758C269.823 319.11 269.823 319.11 270.509 312.849C273.547 307.853 273.547 307.853 277.625 303.173C278.945 301.623 280.266 300.073 281.627 298.475C286.171 293.551 290.841 288.882 295.594 284.269C292.424 284.793 289.253 285.318 286.083 285.843C283.416 286.283 280.748 286.718 278.079 287.15C272.519 288.052 266.967 288.971 261.427 290.046C258.042 290.689 254.627 291.083 251.213 291.414C247.354 286.65 247.354 286.65 246.51 281.124C247.724 271.946 251.329 269.086 257.002 263.131C257.973 262.094 258.944 261.056 259.945 259.987C262.804 256.939 265.691 253.931 268.58 250.925C271.197 248.103 273.811 245.275 276.419 242.44C277.628 241.144 278.836 239.849 280.082 238.514C286.354 231.721 292.519 224.781 298.692 217.851C300.217 216.19 301.742 214.529 303.313 212.818C304.76 211.193 306.208 209.569 307.7 207.895C313.694 202.649 317.314 201.7 324.568 200.797C326.81 200.505 329.052 200.213 331.362 199.912C333.726 199.651 336.091 199.391 338.528 199.123C340.937 198.83 343.347 198.537 345.83 198.236C363.863 196.172 381.7 195.284 399.793 196.146Z" fill="#F1F1F1"/>
</svg>
