<svg width="30" height="30" viewBox="0 0 30 30" fill="none" xmlns="http://www.w3.org/2000/svg">
<rect width="30" height="30" fill="black"/>
<path d="M1.98438 23V3.27148H4.95117V23H1.98438ZM11.0488 23L5.96289 16.3281L7.89062 14.209L14.4805 23H11.0488ZM4.43164 18.3379V14.7422H5.01953L10.7754 8.61719H14.2617L7.52148 15.6992H7.07031L4.43164 18.3379ZM21.5898 28.0723C20.3594 28.0723 19.2839 27.8991 18.3633 27.5527C17.4518 27.2064 16.7181 26.737 16.1621 26.1445C15.6061 25.5521 15.2552 24.8913 15.1094 24.1621L15.082 24.0391H18.0352L18.0762 24.1484C18.2767 24.6042 18.6777 24.9733 19.2793 25.2559C19.89 25.5475 20.6556 25.6934 21.5762 25.6934C22.7428 25.6934 23.6406 25.3971 24.2695 24.8047C24.8984 24.2214 25.2129 23.4329 25.2129 22.4395V20.457H25.1445C24.8711 20.9766 24.5111 21.4277 24.0645 21.8105C23.627 22.1934 23.1165 22.4896 22.5332 22.6992C21.9499 22.9089 21.3118 23.0137 20.6191 23.0137C19.416 23.0137 18.3633 22.7174 17.4609 22.125C16.5586 21.5234 15.8613 20.6758 15.3691 19.582C14.877 18.4883 14.6309 17.194 14.6309 15.6992V15.6855C14.6309 14.1816 14.8815 12.8828 15.3828 11.7891C15.8841 10.6862 16.5859 9.83854 17.4883 9.24609C18.3997 8.64453 19.4616 8.34375 20.6738 8.34375C21.3574 8.34375 21.9818 8.45768 22.5469 8.68555C23.1211 8.91341 23.627 9.23242 24.0645 9.64258C24.502 10.0436 24.862 10.5176 25.1445 11.0645H25.2129V8.61719H28.1797V22.6035C28.1797 23.6973 27.9108 24.6543 27.373 25.4746C26.8444 26.2949 26.0833 26.9329 25.0898 27.3887C24.1055 27.8444 22.9388 28.0723 21.5898 28.0723ZM21.4531 20.6074C22.2096 20.6074 22.8659 20.4069 23.4219 20.0059C23.987 19.6048 24.4245 19.0397 24.7344 18.3105C25.0534 17.5814 25.2129 16.7246 25.2129 15.7402V15.7266C25.2129 14.7422 25.0534 13.89 24.7344 13.1699C24.4245 12.4408 23.987 11.8802 23.4219 11.4883C22.8568 11.0872 22.2005 10.8867 21.4531 10.8867C20.6784 10.8867 20.0039 11.0827 19.4297 11.4746C18.8646 11.8665 18.4271 12.4271 18.1172 13.1562C17.8073 13.8763 17.6523 14.7285 17.6523 15.7129V15.7266C17.6523 16.7383 17.8073 17.6087 18.1172 18.3379C18.4271 19.0579 18.8646 19.6185 19.4297 20.0195C20.0039 20.4115 20.6784 20.6074 21.4531 20.6074Z" fill="white"/>
</svg>
