<svg width="200" height="200" viewBox="0 0 200 200" fill="none" xmlns="http://www.w3.org/2000/svg">
<rect width="200" height="200" fill="white"/>
<path d="M52.4531 124V53.541H64.5625V124H52.4531ZM85.0703 124L67.7363 100.465L75.5 91.4805L99.084 124H85.0703ZM62.8047 107.887V93.7266H64.8555L84.1914 72.2422H98.2051L74.084 98.4629H71.8379L62.8047 107.887ZM124.67 142.115C120.113 142.115 116.125 141.48 112.707 140.211C109.322 138.974 106.62 137.265 104.602 135.084C102.583 132.903 101.33 130.462 100.842 127.76L100.744 127.32H112.658L112.854 127.711C113.505 129.208 114.839 130.445 116.857 131.422C118.908 132.431 121.496 132.936 124.621 132.936C128.592 132.936 131.636 131.959 133.752 130.006C135.868 128.053 136.926 125.432 136.926 122.145V114.674H136.682C135.738 116.529 134.468 118.124 132.873 119.459C131.311 120.794 129.471 121.835 127.355 122.584C125.272 123.333 122.993 123.707 120.52 123.707C116.19 123.707 112.414 122.649 109.191 120.533C106.001 118.417 103.527 115.423 101.77 111.549C100.044 107.643 99.1816 103.004 99.1816 97.6328V97.584C99.1816 92.1152 100.061 87.4277 101.818 83.5215C103.609 79.5827 106.115 76.5391 109.338 74.3906C112.561 72.2422 116.353 71.168 120.715 71.168C123.156 71.168 125.402 71.5911 127.453 72.4375C129.504 73.2513 131.294 74.3906 132.824 75.8555C134.387 77.3203 135.656 79.0456 136.633 81.0312H136.926V72.2422H149.084V122.535C149.084 126.441 148.091 129.859 146.105 132.789C144.12 135.751 141.304 138.046 137.658 139.674C134.012 141.301 129.683 142.115 124.67 142.115ZM124.328 114.332C126.867 114.332 129.081 113.665 130.969 112.33C132.857 110.963 134.322 109.042 135.363 106.568C136.438 104.094 136.975 101.197 136.975 97.877V97.8281C136.975 94.4753 136.438 91.5781 135.363 89.1367C134.289 86.6628 132.808 84.7585 130.92 83.4238C129.032 82.0892 126.835 81.4219 124.328 81.4219C121.724 81.4219 119.462 82.0892 117.541 83.4238C115.62 84.7585 114.139 86.6465 113.098 89.0879C112.056 91.5293 111.535 94.4427 111.535 97.8281V97.877C111.535 101.262 112.056 104.192 113.098 106.666C114.139 109.107 115.62 110.995 117.541 112.33C119.462 113.665 121.724 114.332 124.328 114.332Z" fill="black"/>
</svg>
