<svg width="200" height="200" viewBox="0 0 200 200" fill="none" xmlns="http://www.w3.org/2000/svg">
<rect width="200" height="200" fill="#2C2BAC"/>
<path d="M96.9348 125.7C97.2681 126.167 97.3014 126.667 97.0348 127.2C96.7681 127.733 96.2348 128 95.4348 128H82.3348C81.6681 128 81.1348 127.833 80.7348 127.5C80.3348 127.1 79.9681 126.567 79.6348 125.9L69.3348 105.3C69.1348 104.767 68.9014 104.467 68.6348 104.4C68.3681 104.333 68.0348 104.5 67.6348 104.9L60.5348 111.9C60.2681 112.167 60.0348 112.5 59.8348 112.9C59.7014 113.233 59.6348 113.733 59.6348 114.4V125.6C59.6348 126.467 59.4348 127.1 59.0348 127.5C58.6348 127.833 57.9681 128 57.0348 128H46.4348C45.5681 128 44.9681 127.833 44.6348 127.5C44.3681 127.167 44.2348 126.633 44.2348 125.9V55.7C44.2348 54.4333 44.7681 53.8 45.8348 53.8H58.1348C59.1348 53.8 59.6348 54.4 59.6348 55.6V96.6C59.6348 97 59.7348 97.2667 59.9348 97.4C60.1348 97.5333 60.4348 97.3667 60.8348 96.9L79.6348 76.5C80.6348 75.5 81.5348 75 82.3348 75H93.0348C93.9681 75 94.5348 75.2667 94.7348 75.8C94.9348 76.2667 94.7014 76.8333 94.0348 77.5L80.0348 91.7C79.6348 92.1 79.4014 92.5 79.3348 92.9C79.3348 93.2333 79.5014 93.7667 79.8348 94.5L96.9348 125.7ZM158.184 72.7C158.784 72.7 159.251 72.8667 159.584 73.2C159.984 73.5333 160.184 74.1 160.184 74.9V81.7C160.184 82.6333 159.984 83.3 159.584 83.7C159.184 84.0333 158.617 84.1333 157.884 84C157.017 83.8667 156.151 83.8 155.284 83.8C154.484 83.7333 153.784 83.7667 153.184 83.9C151.384 84.1667 150.717 84.9333 151.184 86.2C151.317 86.8 151.484 87.4667 151.684 88.2C151.951 88.9333 152.084 89.7667 152.084 90.7C152.084 93.7 151.184 96.4667 149.384 99C147.651 101.467 144.984 103.433 141.384 104.9C137.784 106.367 133.317 107.1 127.984 107.1C125.317 107.1 123.184 107.267 121.584 107.6C119.984 107.867 118.817 108.267 118.084 108.8C117.417 109.267 117.084 109.8 117.084 110.4C117.084 111.267 117.584 111.9 118.584 112.3C119.651 112.633 121.251 112.867 123.384 113L137.684 113.8C144.484 114.2 149.451 115.7 152.584 118.3C155.717 120.9 157.284 124.233 157.284 128.3C157.284 133.367 154.884 137.5 150.084 140.7C145.284 143.9 138.217 145.5 128.884 145.5C119.217 145.5 111.951 144.433 107.084 142.3C102.217 140.167 99.784 136.933 99.784 132.6C99.784 130.267 100.684 128.367 102.484 126.9C104.284 125.433 106.584 124.2 109.384 123.2C110.251 122.867 110.251 122.5 109.384 122.1C107.717 121.3 106.317 120.333 105.184 119.2C104.117 118 103.584 116.5 103.584 114.7C103.584 113.367 104.017 112.167 104.884 111.1C105.751 109.967 106.917 108.933 108.384 108C109.851 107.067 111.484 106.267 113.284 105.6C113.617 105.467 113.851 105.3 113.984 105.1C114.117 104.833 113.951 104.6 113.484 104.4C110.351 102.933 107.951 101.067 106.284 98.8C104.617 96.5333 103.784 93.8667 103.784 90.8C103.784 85.8667 105.917 81.8667 110.184 78.8C114.517 75.7333 120.817 74.2 129.084 74.2C132.751 74.2 135.917 74.6 138.584 75.4C141.251 76.2 143.417 77.3 145.084 78.7C145.551 79.0333 146.017 79.2 146.484 79.2C147.017 79.1333 147.451 78.9 147.784 78.5C148.651 77.4333 149.684 76.4667 150.884 75.6C152.084 74.7333 153.351 74.0333 154.684 73.5C156.017 72.9667 157.184 72.7 158.184 72.7ZM127.884 99.5C131.417 99.5 133.984 98.7 135.584 97.1C137.251 95.4333 138.084 93.4 138.084 91C138.084 88.3333 137.251 86.1667 135.584 84.5C133.984 82.7667 131.417 81.9 127.884 81.9C124.617 81.9 122.084 82.7667 120.284 84.5C118.484 86.1667 117.584 88.3333 117.584 91C117.584 93.4 118.484 95.4333 120.284 97.1C122.084 98.7 124.617 99.5 127.884 99.5ZM120.484 125C119.151 124.933 117.884 125.133 116.684 125.6C115.484 126.067 114.484 126.733 113.684 127.6C112.884 128.467 112.484 129.467 112.484 130.6C112.484 132.133 113.051 133.467 114.184 134.6C115.317 135.733 117.151 136.6 119.684 137.2C122.217 137.8 125.617 138.1 129.884 138.1C134.417 138.1 137.851 137.467 140.184 136.2C142.584 135 143.784 133.267 143.784 131C143.784 129.6 143.117 128.4 141.784 127.4C140.517 126.4 138.551 125.833 135.884 125.7L120.484 125Z" fill="white"/>
</svg>
