<svg width="200" height="200" viewBox="0 0 200 200" fill="none" xmlns="http://www.w3.org/2000/svg">
<rect width="200" height="200" fill="#2C2BAC"/>
<path d="M99.7219 126.08C99.9885 126.56 100.069 127.013 99.9619 127.44C99.8552 127.813 99.4819 128 98.8419 128H86.8419C85.6685 128 84.8952 127.573 84.5219 126.72L71.6419 101.6C71.2685 101.013 70.7619 101.12 70.1219 101.92L63.0019 110.4C62.6819 110.827 62.5219 111.387 62.5219 112.08V126.16C62.5219 127.387 61.8019 128 60.3619 128H50.2819C49.5885 128 49.1085 127.867 48.8419 127.6C48.6285 127.333 48.5219 126.933 48.5219 126.4V70.16C48.5219 69.1467 48.9485 68.64 49.8019 68.64H61.3219C62.1219 68.64 62.5219 69.0933 62.5219 70V93.92C62.5219 94.4 62.6019 94.6667 62.7619 94.72C62.9752 94.72 63.2152 94.56 63.4819 94.24L82.8419 69.92C83.1619 69.4933 83.5085 69.1733 83.8819 68.96C84.2552 68.7467 84.7885 68.64 85.4819 68.64H95.0819C95.7752 68.64 96.2552 68.8267 96.5219 69.2C96.8419 69.5733 96.7885 70 96.3619 70.48L81.0019 88.48C80.5752 89.0133 80.5219 89.6533 80.8419 90.4L99.7219 126.08ZM128.162 128.8C122.775 128.8 118.055 127.547 114.002 125.04C110.002 122.533 106.909 119.013 104.722 114.48C102.535 109.947 101.442 104.64 101.442 98.56C101.442 92.2667 102.589 86.8267 104.882 82.24C107.175 77.6533 110.375 74.1067 114.482 71.6C118.642 69.0933 123.469 67.84 128.962 67.84C133.282 67.84 137.149 68.6667 140.562 70.32C143.975 71.9733 146.722 74.08 148.802 76.64C150.935 79.2 152.269 81.92 152.802 84.8C153.015 85.6 153.042 86.1333 152.882 86.4C152.775 86.6667 152.455 86.8533 151.922 86.96L141.362 88.56C140.882 88.56 140.562 88.4533 140.402 88.24C140.295 88.0267 140.189 87.7067 140.082 87.28C139.762 85.52 139.095 83.92 138.082 82.48C137.122 81.04 135.842 79.8933 134.242 79.04C132.695 78.1333 130.829 77.68 128.642 77.68C126.029 77.68 123.762 78.3733 121.842 79.76C119.975 81.1467 118.535 83.3333 117.522 86.32C116.562 89.3067 116.082 93.2267 116.082 98.08C116.082 103.2 116.589 107.28 117.602 110.32C118.669 113.36 120.162 115.573 122.082 116.96C124.055 118.293 126.402 118.96 129.122 118.96C130.829 118.96 132.322 118.72 133.602 118.24C134.935 117.707 136.055 117.013 136.962 116.16C137.922 115.307 138.695 114.347 139.282 113.28C139.869 112.16 140.295 111.013 140.562 109.84L140.722 107.52C140.935 106.72 140.669 106.32 139.922 106.32H130.242C129.815 106.32 129.495 106.24 129.282 106.08C129.069 105.867 128.962 105.493 128.962 104.96V98.96C128.962 98.2133 129.389 97.84 130.242 97.84L151.602 97.92C152.402 97.92 152.989 98.1067 153.362 98.48C153.735 98.8 153.922 99.2533 153.922 99.84V126.8C153.922 127.173 153.815 127.467 153.602 127.68C153.389 127.893 153.095 128 152.722 128H150.162C149.735 128 149.362 127.92 149.042 127.76C148.722 127.547 148.402 127.2 148.082 126.72L145.762 120.96C145.709 120.8 145.602 120.72 145.442 120.72C145.335 120.72 145.175 120.853 144.962 121.12C144.002 122.293 142.802 123.493 141.362 124.72C139.922 125.893 138.135 126.88 136.002 127.68C133.869 128.427 131.255 128.8 128.162 128.8Z" fill="white"/>
</svg>
