<svg width="200" height="200" viewBox="0 0 200 200" fill="none" xmlns="http://www.w3.org/2000/svg">
<rect width="200" height="200" fill="#2C2BAC"/>
<path d="M99.5273 138.6C99.8607 139.2 99.9607 139.767 99.8273 140.3C99.694 140.767 99.2273 141 98.4273 141H83.4273C81.9607 141 80.994 140.467 80.5273 139.4L64.4273 108C63.9607 107.267 63.3273 107.4 62.5273 108.4L53.6273 119C53.2273 119.533 53.0273 120.233 53.0273 121.1V138.7C53.0273 140.233 52.1273 141 50.3273 141H37.7273C36.8607 141 36.2607 140.833 35.9273 140.5C35.6607 140.167 35.5273 139.667 35.5273 139V68.7C35.5273 67.4333 36.0607 66.8 37.1273 66.8H51.5273C52.5273 66.8 53.0273 67.3667 53.0273 68.5V98.4C53.0273 99 53.1273 99.3333 53.3273 99.4C53.594 99.4 53.894 99.2 54.2273 98.8L78.4273 68.4C78.8273 67.8667 79.2607 67.4667 79.7273 67.2C80.194 66.9333 80.8607 66.8 81.7273 66.8H93.7273C94.594 66.8 95.194 67.0333 95.5273 67.5C95.9273 67.9667 95.8607 68.5 95.3273 69.1L76.1273 91.6C75.594 92.2667 75.5273 93.0667 75.9273 94L99.5273 138.6ZM135.077 142C128.344 142 122.444 140.433 117.377 137.3C112.377 134.167 108.511 129.767 105.777 124.1C103.044 118.433 101.677 111.8 101.677 104.2C101.677 96.3333 103.111 89.5333 105.977 83.8C108.844 78.0667 112.844 73.6333 117.977 70.5C123.177 67.3667 129.211 65.8 136.077 65.8C141.477 65.8 146.311 66.8333 150.577 68.9C154.844 70.9667 158.277 73.6 160.877 76.8C163.544 80 165.211 83.4 165.877 87C166.144 88 166.177 88.6667 165.977 89C165.844 89.3333 165.444 89.5667 164.777 89.7L151.577 91.7C150.977 91.7 150.577 91.5667 150.377 91.3C150.244 91.0333 150.111 90.6333 149.977 90.1C149.577 87.9 148.744 85.9 147.477 84.1C146.277 82.3 144.677 80.8667 142.677 79.8C140.744 78.6667 138.411 78.1 135.677 78.1C132.411 78.1 129.577 78.9667 127.177 80.7C124.844 82.4333 123.044 85.1667 121.777 88.9C120.577 92.6333 119.977 97.5333 119.977 103.6C119.977 110 120.611 115.1 121.877 118.9C123.211 122.7 125.077 125.467 127.477 127.2C129.944 128.867 132.877 129.7 136.277 129.7C138.411 129.7 140.277 129.4 141.877 128.8C143.544 128.133 144.944 127.267 146.077 126.2C147.277 125.133 148.244 123.933 148.977 122.6C149.711 121.2 150.244 119.767 150.577 118.3L150.777 115.4C151.044 114.4 150.711 113.9 149.777 113.9H137.677C137.144 113.9 136.744 113.8 136.477 113.6C136.211 113.333 136.077 112.867 136.077 112.2V104.7C136.077 103.767 136.611 103.3 137.677 103.3L164.377 103.4C165.377 103.4 166.111 103.633 166.577 104.1C167.044 104.5 167.277 105.067 167.277 105.8V139.5C167.277 139.967 167.144 140.333 166.877 140.6C166.611 140.867 166.244 141 165.777 141H162.577C162.044 141 161.577 140.9 161.177 140.7C160.777 140.433 160.377 140 159.977 139.4L157.077 132.2C157.011 132 156.877 131.9 156.677 131.9C156.544 131.9 156.344 132.067 156.077 132.4C154.877 133.867 153.377 135.367 151.577 136.9C149.777 138.367 147.544 139.6 144.877 140.6C142.211 141.533 138.944 142 135.077 142Z" fill="white"/>
</svg>
