<svg width="410" height="399" viewBox="0 0 410 399" fill="none" xmlns="http://www.w3.org/2000/svg">
<rect width="410" height="399" rx="22" fill="white"/>
<path d="M157.923 91C162.556 91.2121 162.556 91.2121 164.101 92.9085C163.998 110.25 160.525 127.62 157.826 144.651C157.172 148.8 156.52 152.949 155.874 157.1C155.476 159.661 155.072 162.221 154.663 164.781C153.792 170.36 153.29 175.439 153.29 181.125C154.23 180.155 154.23 180.155 155.19 179.166C167.619 166.357 180.052 153.555 192.518 140.791C197.519 135.67 202.513 130.542 207.496 125.4C209.057 123.791 209.057 123.791 210.651 122.15C212.635 120.105 214.617 118.059 216.597 116.009C217.498 115.082 218.398 114.155 219.326 113.2C220.5 111.987 220.5 111.987 221.698 110.75C223.003 109.476 223.003 109.476 224.334 108.177C225.398 106.998 226.462 105.819 227.559 104.604C233.939 100.045 239.763 99.8462 247.241 99.2438C248.709 99.1027 250.177 98.9617 251.69 98.8164C256.373 98.3742 261.058 97.9742 265.744 97.5738C268.878 97.2804 272.012 96.9845 275.146 96.6858C310.7 93.3846 310.7 93.3846 317 97.9979C316.181 110.804 312.497 122.11 308.602 134.154C307.972 136.154 307.342 138.154 306.693 140.214C301.984 154.973 301.984 154.973 298.467 160.767C295.33 161.555 295.33 161.555 291.517 161.755C290.147 161.83 288.777 161.905 287.366 161.983C285.216 162.064 285.216 162.064 283.022 162.146C281.589 162.232 280.155 162.318 278.679 162.407C270.773 162.78 270.773 162.78 267.578 162.464C263.616 158.111 263.654 154.869 262.945 148.892C256.832 154.63 250.819 160.4 245.184 166.705C240.491 171.953 235.534 176.75 230.463 181.549C226.639 185.282 223.085 189.26 219.503 193.27C216.734 196.26 213.885 199.055 210.941 201.834C204.043 208.421 197.382 215.26 190.742 222.158C189.025 223.934 189.025 223.934 187.273 225.746C180.891 232.343 180.891 232.343 174.735 239.191C171.823 242.198 171.823 242.198 168.734 242.198C172.459 249.963 177.337 255.374 183.02 261.389C189.484 268.349 195.688 275.36 201.541 282.952C206.239 288.755 211.342 294.119 216.4 299.539C222.779 306.751 222.779 306.751 222.813 312.223C220.502 319.028 216.324 323.033 211.592 327.975C210.706 328.932 209.82 329.889 208.907 330.874C195.207 345.529 195.207 345.529 189.777 346C180.229 341.255 173.72 330.666 167.008 322.104C163.842 318.222 160.528 314.564 157.151 310.904C152.879 306.276 148.791 301.599 144.892 296.59C140.693 291.208 136.258 286.198 131.667 281.216C126.135 275.213 120.939 269.065 115.903 262.562C111.645 257.334 106.997 252.555 102.347 247.751C96.1708 240.099 94.0264 233.01 93.8788 222.883C93.8195 219.716 93.8195 219.716 93.759 216.484C93.7417 214.203 93.7267 211.921 93.714 209.64C93.6913 207.279 93.6683 204.917 93.6451 202.556C93.6035 197.621 93.5825 192.686 93.5726 187.75C93.5558 181.436 93.4603 175.126 93.346 168.812C93.2712 163.941 93.2521 159.071 93.2482 154.199C93.2371 151.871 93.2055 149.544 93.1529 147.217C92.7757 129.165 92.7757 129.165 97.0591 123.703C100.279 121.432 103.395 119.876 106.956 118.356C108.797 117.287 110.628 116.197 112.446 115.084C114.248 114.073 116.05 113.062 117.906 112.02C118.879 111.471 119.852 110.923 120.855 110.357C123.909 108.635 126.968 106.921 130.026 105.208C133.123 103.47 136.22 101.73 139.314 99.9859C142.092 98.4207 144.873 96.8614 147.654 95.3025C154.759 91.1448 154.759 91.1448 157.923 91Z" fill="black"/>
<path d="M311.796 184.921C313.157 190.062 314.085 194.917 314.885 200.189C315.443 203.397 315.443 203.397 316.013 206.67C317.155 216.16 317.66 224.652 312.494 232.8C306.308 240.369 299.312 246.83 292.075 253.148C283.449 260.719 275.314 268.945 267.2 277.166C265.614 278.768 264.027 280.369 262.44 281.97C261.659 282.759 260.877 283.548 260.072 284.36C256.441 288.018 252.8 291.662 249.15 295.297C247.937 296.506 246.725 297.716 245.476 298.962C238.751 305.339 238.751 305.339 234.109 305.469C227.784 302.744 224.564 297.629 220.384 291.904C218.754 289.732 217.123 287.561 215.492 285.39C214.425 283.94 214.425 283.94 213.337 282.461C211.296 279.699 211.296 279.699 208.319 276.53C207.77 272.507 207.77 272.507 208.319 268.047C210.75 264.489 210.75 264.489 214.014 261.156C215.071 260.051 216.128 258.947 217.217 257.809C220.854 254.302 224.592 250.976 228.396 247.69C225.859 248.064 223.321 248.437 220.784 248.811C218.649 249.124 216.513 249.435 214.378 249.742C209.927 250.384 205.483 251.039 201.049 251.805C198.34 252.263 195.607 252.544 192.874 252.779C189.785 249.386 189.785 249.386 189.11 245.45C190.081 238.913 192.967 236.876 197.508 232.634C198.285 231.895 199.062 231.156 199.863 230.394C202.151 228.223 204.462 226.081 206.774 223.939C208.869 221.929 210.961 219.915 213.048 217.896C214.016 216.973 214.984 216.05 215.98 215.099C221.001 210.261 225.935 205.317 230.876 200.381C232.096 199.198 233.317 198.015 234.574 196.796C235.733 195.639 236.892 194.482 238.086 193.29C242.883 189.553 245.781 188.877 251.587 188.234C253.381 188.026 255.176 187.818 257.024 187.603C258.917 187.418 260.81 187.232 262.76 187.041C264.689 186.833 266.617 186.624 268.604 186.41C283.038 184.939 297.315 184.307 311.796 184.921Z" fill="black"/>
</svg>
